<?xml version="1.0" standalone="no"?>
<!DOCTYPE svg PUBLIC "-//W3C//DTD SVG 20010904//EN"
 "http://www.w3.org/TR/2001/REC-SVG-20010904/DTD/svg10.dtd">
<svg version="1.0" xmlns="http://www.w3.org/2000/svg"
 width="4096.000000pt" height="4096.000000pt" viewBox="0 0 4096.000000 4096.000000"
 preserveAspectRatio="xMidYMid meet">
<metadata>
Created by potrace 1.14, written by Peter Selinger 2001-2017
</metadata>
<g transform="translate(0.000000,4096.000000) scale(0.100000,-0.100000)"
fill="#000000" stroke="none">
<path d="M34515 37005 c-22 -24 -41 -48 -42 -52 -2 -4 19 -8 47 -9 l50 -1 -1
54 c-1 29 -4 53 -8 52 -3 0 -24 -20 -46 -44z"/>
<path d="M22653 34084 c-3 -9 0 -133 7 -277 7 -144 12 -269 12 -277 -1 -8 3
-87 9 -175 13 -228 31 -565 34 -670 4 -99 9 -207 25 -515 6 -112 13 -247 15
-300 1 -52 6 -142 9 -200 16 -255 37 -662 49 -942 4 -76 -3 -93 -29 -69 -18
19 -220 114 -277 132 -31 9 -69 16 -83 14 -15 -1 -48 3 -74 10 -26 7 -65 13
-86 14 -22 0 -52 3 -69 7 -73 13 -358 35 -445 33 -73 -1 -105 0 -230 8 -58 3
-211 6 -340 7 -216 0 -241 -2 -304 -22 -38 -12 -92 -25 -120 -28 -28 -2 -71
-10 -96 -16 -55 -13 -219 -90 -278 -129 -24 -16 -45 -29 -47 -29 -6 0 -53 -33
-277 -194 -106 -77 -221 -159 -256 -182 -134 -91 -285 -231 -473 -439 -90 -99
-239 -286 -239 -299 0 -3 -17 -32 -37 -63 -21 -32 -46 -74 -56 -93 -11 -19
-25 -42 -33 -50 -7 -9 -25 -37 -38 -62 -14 -26 -45 -78 -69 -115 -60 -91 -157
-251 -175 -288 -8 -16 -38 -64 -65 -105 -55 -83 -86 -145 -87 -174 0 -10 -13
-35 -28 -55 -16 -20 -59 -92 -97 -161 -38 -69 -81 -143 -96 -166 -15 -23 -40
-72 -55 -109 -15 -38 -45 -100 -66 -138 -21 -39 -38 -71 -38 -74 0 -3 -215
-445 -250 -513 -9 -19 -23 -53 -30 -75 -7 -22 -45 -116 -85 -210 -40 -93 -86
-215 -103 -270 -17 -55 -47 -140 -66 -190 -20 -49 -36 -93 -36 -97 0 -4 -11
-24 -25 -44 -15 -22 -25 -51 -25 -73 0 -32 -5 -38 -42 -59 -24 -12 -63 -41
-88 -65 -133 -124 -237 -208 -320 -257 -113 -67 -251 -159 -265 -174 -5 -7
-35 -31 -65 -53 -57 -43 -217 -199 -233 -228 -8 -15 -14 -12 -48 21 -29 28
-42 35 -48 26 -19 -31 -83 -1285 -113 -2242 -16 -507 -16 -2393 0 -2900 79
-2477 266 -4499 603 -6535 459 -2775 1126 -5065 1994 -6852 l107 -221 713
-386 c391 -212 717 -386 723 -386 16 0 17 12752 2 12781 -11 20 7 31 135 84
79 33 407 192 460 223 17 9 57 33 90 51 33 19 68 41 78 49 9 8 19 13 21 11 2
-2 -47 -96 -109 -209 l-114 -205 0 -6394 c-1 -6085 0 -6393 17 -6386 9 3 332
177 718 386 l701 380 121 247 c1404 2872 2335 7411 2552 12447 65 1505 66
3120 5 4610 -32 755 -74 1455 -89 1455 -6 0 -273 -262 -593 -582 -556 -556
-595 -592 -583 -533 1 6 1 60 1 120 0 61 4 137 10 169 6 32 10 83 9 113 -1 29
-2 63 -2 76 0 12 1 36 2 52 1 17 -1 41 -4 55 -9 35 -14 82 -21 185 -4 49 -9
93 -12 98 -3 5 -7 22 -8 36 -1 15 -11 52 -21 82 -10 30 -19 56 -19 59 -29 138
-57 220 -76 220 -4 0 6 24 22 53 33 59 36 104 12 150 -9 18 -18 46 -19 62 -2
17 -5 37 -7 45 -4 14 -11 53 -22 113 -10 53 -16 81 -20 87 -2 4 -7 21 -10 38
-3 18 -12 60 -19 94 -8 35 -18 88 -21 118 -4 30 -10 62 -15 70 -7 14 -22 86
-20 92 1 2 -4 17 -10 33 -32 81 -51 185 -55 298 -3 67 -8 139 -10 160 -3 24
-1 37 6 37 6 0 77 -31 156 -70 80 -38 148 -70 151 -70 17 -1 102 -48 138 -76
21 -17 57 -41 80 -52 22 -11 76 -47 120 -79 90 -67 135 -96 149 -100 116 -27
198 -25 214 5 7 14 16 108 23 237 3 53 -11 121 -41 202 -24 67 -28 90 -25 163
7 213 -47 338 -228 525 -109 113 -118 124 -109 130 15 9 20 64 9 97 -13 38
-44 80 -151 205 -25 28 -58 71 -75 95 l-30 44 25 22 26 23 -6 160 c-5 134 -3
158 8 151 33 -18 315 -278 315 -290 0 -7 9 -38 21 -70 12 -31 45 -124 74 -207
29 -82 77 -220 108 -305 90 -252 112 -315 204 -585 41 -121 94 -272 117 -335
24 -63 55 -151 70 -195 62 -180 112 -321 117 -330 4 -5 11 -26 18 -45 9 -28
27 -46 86 -85 41 -27 75 -52 75 -57 0 -4 4 -8 9 -8 12 0 155 -96 266 -179 22
-16 65 -44 95 -62 30 -18 60 -38 65 -45 13 -15 261 -194 270 -194 6 0 104 -77
115 -91 3 -3 22 -14 43 -24 20 -9 37 -21 37 -25 0 -4 15 -17 33 -29 62 -40 71
-46 146 -105 41 -32 82 -61 91 -64 8 -3 34 -21 56 -41 23 -20 58 -47 78 -61
41 -28 63 -44 215 -160 58 -44 108 -80 112 -80 4 0 21 -12 37 -27 27 -26 100
-82 209 -161 26 -18 61 -45 79 -60 18 -15 54 -43 80 -62 25 -19 73 -56 105
-82 32 -27 61 -48 63 -48 3 0 52 -37 108 -82 146 -118 167 -134 225 -173 28
-19 53 -38 55 -42 3 -7 125 -106 214 -173 29 -22 331 -267 394 -320 14 -11 68
-54 120 -95 52 -41 121 -99 154 -128 32 -28 75 -63 95 -77 21 -14 79 -63 129
-108 51 -45 95 -82 100 -82 4 0 31 -21 59 -47 29 -27 84 -75 123 -108 152
-129 180 -153 288 -247 61 -54 115 -98 119 -98 5 0 29 -20 53 -45 24 -25 47
-45 51 -45 4 0 32 -24 61 -52 29 -29 132 -123 228 -208 96 -85 200 -178 230
-207 30 -28 91 -83 136 -121 44 -39 125 -112 180 -162 54 -51 110 -100 123
-109 14 -8 77 -68 141 -131 64 -63 186 -180 271 -259 236 -221 657 -632 892
-871 117 -118 254 -257 306 -310 52 -52 119 -122 149 -155 75 -82 350 -373
440 -464 39 -41 72 -77 72 -80 0 -3 32 -40 71 -81 39 -41 112 -122 162 -179
51 -58 117 -132 148 -165 30 -34 100 -113 154 -176 54 -63 124 -144 156 -180
116 -130 417 -495 627 -759 37 -46 84 -102 105 -126 20 -23 37 -46 37 -51 0
-5 8 -17 18 -26 9 -8 39 -43 65 -77 75 -94 104 -80 137 67 12 54 32 135 45
182 13 47 30 126 40 175 9 50 20 97 25 106 5 9 16 51 24 93 9 42 29 127 45
189 16 61 32 130 35 152 4 22 11 51 16 65 5 14 20 79 35 145 14 66 34 149 44
185 10 36 26 103 36 150 9 47 21 95 26 108 20 52 9 99 -77 307 -47 116 -96
237 -109 271 -12 33 -28 69 -34 80 -15 27 -67 143 -90 201 -10 26 -51 116 -91
198 -129 268 -231 480 -242 500 -7 11 -30 56 -53 100 -102 195 -160 305 -193
365 -20 36 -43 78 -51 95 -9 16 -18 32 -21 35 -5 5 -24 40 -63 115 -12 22 -35
63 -52 90 -18 28 -34 58 -38 67 -3 10 -22 43 -42 73 -19 31 -35 58 -35 62 0 3
-20 38 -44 77 -24 39 -54 89 -66 111 -12 22 -57 95 -99 163 -42 67 -83 134
-91 149 -8 15 -51 84 -94 153 -44 69 -89 141 -100 161 -12 21 -39 63 -61 95
-49 73 -62 94 -74 119 -5 12 -16 27 -25 34 -9 7 -16 18 -16 24 0 5 -12 26 -27
46 -16 20 -36 51 -45 68 -10 18 -24 40 -32 50 -22 28 -181 266 -189 283 -4 8
-36 56 -71 105 -36 50 -103 146 -149 215 -82 120 -157 226 -306 430 -38 52
-88 123 -111 158 -23 34 -45 62 -48 62 -4 0 -13 12 -19 28 -7 15 -29 44 -48
65 -19 21 -35 41 -35 44 0 6 -150 208 -185 251 -8 9 -31 40 -52 68 -102 138
-177 234 -185 234 -4 0 -8 5 -8 10 0 10 -89 130 -169 230 -29 35 -129 162
-288 365 -48 61 -112 140 -142 177 -31 36 -67 82 -81 101 -14 18 -52 64 -85
101 -33 38 -64 76 -69 85 -5 9 -13 18 -16 21 -4 3 -42 48 -84 100 -43 52 -101
122 -130 155 -29 33 -106 123 -171 200 -65 77 -132 156 -149 176 -17 20 -44
51 -60 70 -122 143 -210 245 -216 249 -5 4 -143 161 -255 289 -17 19 -37 42
-45 51 -8 9 -35 38 -59 66 -94 107 -244 269 -379 412 -18 19 -36 40 -40 47 -8
16 -177 197 -304 328 -49 50 -88 93 -88 95 0 5 -31 38 -495 518 -137 142 -297
304 -353 360 -57 56 -109 107 -115 114 -29 29 -203 202 -210 208 -4 4 -38 39
-75 77 -174 178 -858 839 -922 892 -19 15 -71 64 -115 108 -102 102 -221 212
-242 223 -8 5 -65 58 -127 118 -116 113 -236 225 -416 384 -58 51 -143 128
-190 170 -88 80 -409 361 -538 472 -40 35 -83 72 -96 83 -12 11 -56 50 -97 87
-131 117 -144 128 -155 128 -5 0 -26 16 -45 36 -48 51 -226 204 -236 204 -5 0
-25 16 -44 36 -18 20 -70 65 -114 100 -85 68 -135 110 -219 185 -28 25 -58 50
-67 55 -9 5 -47 36 -84 69 -37 33 -75 64 -84 69 -9 5 -46 36 -83 67 -37 32
-76 62 -86 68 -11 6 -46 35 -78 66 -33 30 -67 57 -76 60 -10 4 -43 31 -75 60
-32 30 -63 55 -69 55 -6 0 -21 12 -35 26 -13 14 -57 51 -98 82 -103 80 -177
138 -258 204 -118 96 -175 120 -190 82z m-4613 -7937 c0 -2 -10 -12 -22 -23
l-23 -19 19 23 c18 21 26 27 26 19z m-93 -63 c-3 -3 -12 -4 -19 -1 -8 3 -5 6
6 6 11 1 17 -2 13 -5z m390 -80 c-3 -3 -12 -4 -19 -1 -8 3 -5 6 6 6 11 1 17
-2 13 -5z m-102 -74 c-3 -5 -12 -10 -18 -10 -7 0 -6 4 3 10 19 12 23 12 15 0z
m234 -75 c0 -5 -4 -3 -9 5 -5 8 -9 22 -9 30 0 16 17 -16 18 -35z m531 -59 c0
-2 -8 -10 -17 -17 -16 -13 -17 -12 -4 4 13 16 21 21 21 13z m-523 -38 c-3 -8
-6 -5 -6 6 -1 11 2 17 5 13 3 -3 4 -12 1 -19z m503 -53 c14 -19 14 -19 -2 -6
-10 7 -18 18 -18 24 0 6 1 8 3 6 1 -2 9 -13 17 -24z m313 -82 c-7 -2 -19 -2
-25 0 -7 3 -2 5 12 5 14 0 19 -2 13 -5z m2084 -45 c-3 -8 -6 -5 -6 6 -1 11 2
17 5 13 3 -3 4 -12 1 -19z m480 -4 c-3 -3 -12 -4 -19 -1 -8 3 -5 6 6 6 11 1
17 -2 13 -5z m453 -4 c8 -5 11 -10 5 -10 -5 0 -17 5 -25 10 -8 5 -10 10 -5 10
6 0 17 -5 25 -10z m-1845 -10 c3 -6 -1 -7 -9 -4 -18 7 -21 14 -7 14 6 0 13 -4
16 -10z m508 -17 c-7 -2 -19 -2 -25 0 -7 3 -2 5 12 5 14 0 19 -2 13 -5z m-428
-13 c3 -6 -1 -7 -9 -4 -18 7 -21 14 -7 14 6 0 13 -4 16 -10z m2432 -62 c-3 -8
-6 -5 -6 6 -1 11 2 17 5 13 3 -3 4 -12 1 -19z"/>
<path d="M18718 33962 c-26 -15 -60 -40 -77 -55 -17 -15 -33 -27 -37 -27 -3 0
-19 -13 -36 -30 -16 -16 -33 -30 -36 -30 -4 0 -21 -14 -39 -30 -18 -17 -35
-30 -39 -30 -4 0 -16 -10 -28 -22 -11 -13 -34 -31 -49 -41 -34 -22 -60 -43
-96 -78 -14 -14 -38 -32 -52 -40 -15 -8 -55 -40 -89 -71 -34 -32 -66 -56 -70
-55 -4 1 -32 -21 -61 -49 -30 -28 -72 -62 -93 -77 -49 -32 -153 -119 -212
-174 -24 -23 -44 -40 -44 -37 0 4 -19 -10 -42 -31 -24 -20 -62 -53 -85 -73
-23 -21 -54 -46 -68 -57 -14 -11 -38 -31 -54 -45 -46 -41 -81 -70 -86 -70 -7
0 -39 -27 -119 -99 -90 -80 -105 -93 -136 -113 -14 -8 -63 -52 -109 -97 -46
-44 -90 -81 -97 -81 -7 0 -21 -10 -31 -23 -10 -13 -25 -27 -35 -33 -9 -5 -49
-39 -90 -77 -40 -37 -89 -80 -108 -96 -19 -16 -64 -55 -100 -86 -85 -75 -135
-117 -190 -163 -47 -40 -113 -100 -185 -170 -25 -24 -45 -40 -45 -36 0 5 -17
-10 -37 -32 -21 -22 -46 -44 -55 -50 -9 -5 -59 -49 -111 -99 -52 -49 -116
-108 -142 -130 -27 -22 -78 -67 -114 -101 -36 -33 -83 -76 -105 -95 -21 -19
-87 -82 -147 -141 -59 -60 -111 -108 -114 -108 -4 0 -18 -11 -33 -24 -15 -14
-54 -49 -87 -79 -33 -29 -106 -98 -162 -153 -56 -54 -134 -128 -173 -164 -99
-91 -102 -93 -130 -128 -14 -17 -29 -31 -35 -32 -5 0 -57 -47 -115 -104 -193
-191 -478 -471 -511 -502 -19 -17 -55 -53 -81 -80 -58 -60 -99 -102 -122 -123
-17 -16 -91 -91 -125 -126 -11 -11 -34 -34 -53 -52 -18 -17 -52 -51 -75 -75
-24 -23 -47 -47 -53 -53 -162 -162 -540 -552 -540 -557 0 -11 -37 -47 -43 -42
-2 3 -12 -8 -22 -23 -10 -15 -38 -46 -62 -68 -23 -23 -43 -46 -43 -53 0 -7 -4
-12 -9 -12 -12 0 -61 -44 -61 -54 0 -4 -54 -62 -120 -129 -66 -67 -120 -126
-120 -132 0 -6 -13 -19 -30 -28 -16 -10 -30 -22 -30 -26 0 -4 -19 -28 -42 -53
-24 -26 -59 -65 -78 -88 -19 -22 -81 -89 -137 -147 -57 -58 -103 -111 -103
-117 0 -7 -13 -20 -30 -29 -16 -10 -30 -23 -30 -28 0 -11 -7 -19 -107 -126
-113 -120 -123 -131 -123 -138 0 -4 -17 -24 -37 -45 -21 -22 -51 -56 -68 -76
-16 -20 -55 -60 -85 -90 -30 -30 -51 -54 -46 -54 4 0 -6 -12 -23 -27 -17 -15
-31 -31 -31 -36 0 -4 -12 -20 -27 -36 -16 -16 -39 -41 -52 -57 -13 -16 -42
-49 -65 -74 -22 -25 -53 -62 -68 -81 -15 -19 -54 -64 -87 -99 -33 -36 -61 -68
-61 -72 0 -4 -12 -19 -27 -33 -15 -14 -25 -25 -21 -25 8 0 -1 -11 -110 -128
-37 -41 -73 -85 -80 -98 -7 -13 -17 -24 -22 -24 -6 0 -10 -7 -10 -15 0 -7 -6
-18 -12 -22 -16 -10 -77 -81 -98 -112 -8 -13 -34 -44 -58 -70 -81 -88 -87 -95
-84 -103 1 -5 -2 -8 -8 -8 -5 0 -21 -18 -34 -39 -14 -22 -48 -63 -75 -93 -28
-29 -51 -58 -51 -64 0 -7 -7 -14 -15 -18 -8 -3 -15 -12 -15 -20 0 -8 -4 -16
-8 -18 -7 -3 -47 -51 -131 -157 -44 -56 -100 -125 -116 -142 -8 -9 -15 -20
-15 -25 0 -5 -16 -25 -35 -44 -19 -19 -35 -40 -35 -46 0 -7 -4 -14 -9 -16 -5
-1 -32 -34 -62 -73 -29 -38 -56 -71 -61 -73 -4 -2 -8 -10 -8 -18 0 -8 -7 -17
-15 -20 -8 -4 -15 -11 -15 -18 0 -6 -16 -27 -35 -46 -19 -19 -35 -39 -35 -46
0 -7 -7 -14 -15 -18 -8 -3 -15 -12 -15 -20 0 -8 -4 -16 -8 -18 -11 -4 -103
-120 -110 -137 -3 -7 -20 -30 -38 -50 -19 -20 -34 -41 -34 -47 0 -7 -7 -15
-16 -18 -8 -3 -13 -9 -11 -13 3 -5 -10 -24 -29 -43 -19 -19 -34 -39 -34 -46 0
-7 -7 -14 -15 -18 -8 -3 -15 -12 -15 -21 0 -8 -4 -15 -10 -15 -5 0 -10 -6 -10
-12 0 -7 -16 -29 -35 -48 -19 -19 -35 -38 -35 -43 0 -6 -17 -31 -37 -56 -21
-25 -37 -48 -36 -51 1 -3 -5 -9 -13 -13 -8 -4 -14 -12 -14 -18 0 -13 -41 -72
-57 -82 -7 -4 -13 -15 -13 -22 0 -8 -4 -15 -10 -15 -5 0 -10 -7 -10 -15 0 -7
-6 -18 -14 -22 -8 -4 -33 -37 -57 -72 -66 -95 -73 -106 -81 -109 -5 -2 -8 -10
-8 -18 0 -8 -7 -17 -15 -20 -8 -4 -15 -11 -15 -17 0 -6 -11 -22 -24 -36 -24
-26 -54 -72 -78 -121 -7 -14 -15 -27 -19 -30 -10 -8 -133 -180 -144 -201 -5
-10 -13 -19 -17 -19 -5 0 -8 -6 -8 -13 0 -7 -11 -24 -25 -39 -14 -15 -25 -34
-25 -43 0 -8 -4 -15 -10 -15 -5 0 -10 -5 -10 -11 0 -6 -16 -29 -35 -52 -19
-22 -35 -46 -35 -52 0 -7 -9 -20 -20 -30 -11 -10 -20 -24 -20 -32 0 -7 -4 -13
-10 -13 -5 0 -10 -5 -10 -11 0 -6 -14 -29 -31 -50 -17 -21 -28 -39 -24 -39 3
0 1 -6 -4 -12 -46 -57 -61 -77 -61 -87 0 -6 -4 -11 -10 -11 -5 0 -10 -6 -10
-13 0 -8 -9 -24 -20 -37 -11 -13 -20 -29 -20 -36 0 -7 -6 -17 -12 -21 -14 -9
-31 -34 -50 -73 -7 -14 -15 -27 -18 -30 -19 -17 -87 -124 -96 -152 -4 -10 -10
-18 -15 -18 -5 0 -9 -4 -9 -10 0 -8 -38 -71 -59 -96 -5 -6 -27 -42 -48 -80
-66 -115 -87 -148 -100 -162 -7 -7 -13 -17 -13 -22 0 -5 -18 -36 -40 -69 -22
-33 -40 -65 -40 -71 0 -5 -4 -10 -10 -10 -5 0 -10 -8 -10 -19 0 -10 -7 -24
-15 -31 -9 -7 -13 -15 -11 -17 3 -3 0 -10 -5 -17 -39 -46 -49 -60 -49 -67 0
-5 -11 -25 -25 -45 -14 -20 -22 -40 -20 -45 3 -4 0 -11 -7 -16 -14 -8 -24 -26
-70 -111 -15 -30 -37 -65 -48 -79 -11 -14 -20 -33 -20 -41 0 -9 -6 -23 -14
-31 -7 -9 -29 -45 -47 -81 -18 -36 -37 -69 -42 -75 -11 -13 -57 -100 -104
-195 -21 -41 -40 -77 -43 -80 -6 -6 -36 -63 -82 -155 -16 -33 -34 -67 -39 -75
-15 -25 -67 -132 -293 -600 -25 -52 -46 -99 -46 -103 0 -7 -25 -62 -106 -234
-19 -39 -34 -78 -34 -86 0 -9 -10 -35 -21 -59 -12 -23 -28 -56 -35 -73 -7 -16
-22 -51 -33 -77 -12 -26 -21 -54 -21 -62 0 -8 -4 -17 -9 -21 -5 -3 -13 -20
-17 -38 -3 -17 -17 -54 -30 -81 -25 -51 -31 -113 -15 -144 5 -9 14 -44 21 -77
25 -129 42 -200 50 -210 4 -5 11 -35 15 -65 4 -30 12 -64 18 -75 6 -11 11 -31
12 -45 2 -24 11 -63 34 -155 5 -22 13 -56 16 -75 7 -45 25 -102 36 -116 5 -6
6 -13 3 -17 -3 -3 1 -29 10 -59 8 -29 17 -66 20 -83 11 -62 19 -91 29 -110 5
-11 12 -35 13 -55 4 -43 31 -161 65 -280 6 -19 10 -42 11 -50 1 -40 44 -177
61 -194 15 -15 23 -16 43 -7 13 6 24 15 24 21 0 6 12 24 27 39 48 50 83 93 83
102 0 5 13 22 30 39 16 17 30 34 30 38 0 4 16 23 35 42 19 19 35 38 35 42 0 5
12 20 28 34 15 14 27 29 27 33 0 7 5 13 54 69 47 54 61 72 61 79 0 3 7 13 15
22 55 57 115 127 115 134 0 5 6 14 13 21 6 8 30 35 52 61 22 27 54 62 70 80
33 34 76 86 115 137 14 18 54 63 89 100 36 38 71 78 80 91 8 12 21 26 28 30 7
4 13 12 13 18 0 5 18 29 41 52 22 23 55 60 72 81 18 21 53 59 79 84 26 25 46
48 43 50 -3 3 7 15 20 28 14 13 25 26 25 30 0 4 21 28 47 54 93 91 163 167
163 176 0 5 18 25 40 44 22 19 40 39 40 45 0 5 33 41 73 80 39 40 109 112 155
161 46 49 119 126 163 171 43 45 79 85 79 89 0 4 20 27 45 51 25 23 45 47 45
53 0 5 4 10 8 10 9 0 182 167 182 175 0 2 107 110 238 240 130 129 240 239
244 243 88 89 140 141 159 157 13 12 33 31 44 43 49 53 275 272 281 272 4 0
58 52 121 115 63 63 117 115 121 115 5 0 76 66 159 148 163 159 177 172 204
187 10 6 67 58 128 118 61 59 112 107 115 107 3 0 19 12 36 28 16 15 58 52 91
82 88 78 155 139 199 183 22 20 42 37 46 37 3 0 33 27 65 60 32 33 62 60 67
60 5 0 41 32 81 70 39 39 74 70 77 70 3 0 25 20 50 45 24 25 48 45 54 45 6 0
29 17 51 38 62 58 114 104 155 137 41 32 85 70 269 227 27 24 65 58 84 76 19
17 38 32 43 32 5 0 24 15 43 34 19 19 41 38 49 43 8 4 34 27 59 50 24 23 58
50 75 60 16 10 59 45 95 78 80 74 105 95 113 95 4 0 17 11 30 25 13 14 26 25
29 25 7 0 73 52 114 90 15 14 45 38 66 55 22 16 46 36 55 45 9 8 31 26 50 40
18 14 47 36 64 50 17 14 39 32 49 40 11 8 31 27 46 41 15 15 40 33 56 42 17 9
50 34 75 56 72 65 78 70 82 65 3 -2 22 14 43 36 22 22 45 40 52 40 7 0 13 5
13 10 0 6 5 10 11 10 6 0 24 14 41 30 16 17 33 30 36 30 4 0 21 14 39 30 18
17 35 30 39 30 4 0 18 12 32 28 14 15 28 25 30 23 2 -2 21 13 42 32 22 19 47
38 57 41 10 3 38 24 63 46 73 64 74 65 82 63 4 -2 15 8 25 20 10 13 33 32 51
42 17 11 32 23 32 27 0 4 17 16 38 27 20 11 54 36 75 55 21 20 51 43 68 51 16
9 29 20 29 25 0 5 10 12 21 15 12 4 34 20 49 35 15 15 36 31 46 34 10 4 35 21
55 39 74 64 142 117 154 117 2 0 18 14 35 30 17 17 36 30 44 30 7 0 23 11 36
25 13 14 27 25 31 25 5 0 22 13 39 30 17 16 45 37 63 46 17 9 39 23 47 30 8 8
40 32 70 53 30 22 62 46 71 54 9 8 30 23 48 33 17 10 31 22 31 26 0 4 18 17
40 28 22 11 40 25 40 31 0 6 4 8 8 5 5 -3 27 13 50 35 23 21 47 39 53 39 6 0
26 12 44 28 59 50 75 62 75 56 0 -5 30 17 80 59 8 6 17 12 20 12 4 0 14 7 23
15 33 30 46 40 99 72 29 17 55 35 58 38 3 3 21 17 40 30 19 13 37 27 40 30 3
4 20 15 38 25 17 11 32 23 32 27 0 4 6 8 14 8 8 0 16 4 18 8 2 4 32 26 68 47
62 38 87 55 115 83 8 6 18 12 24 12 6 0 11 5 11 10 0 6 6 10 14 10 18 0 58 49
50 61 -3 5 -2 9 3 9 10 0 25 35 48 110 9 30 20 64 25 75 4 11 13 36 20 55 15
43 29 79 42 103 5 10 6 22 3 27 -3 4 -1 10 4 12 6 1 12 20 14 40 2 20 8 43 14
50 5 7 18 36 27 63 10 28 24 64 30 80 31 73 38 94 32 104 -3 5 -3 11 1 13 9 3
64 153 67 178 0 8 3 17 7 20 3 3 18 46 34 95 16 50 34 99 40 110 7 11 17 40
24 65 7 25 29 88 48 140 19 52 49 138 65 190 17 52 34 100 38 105 6 8 54 148
64 190 2 6 7 19 11 30 37 91 64 165 69 191 5 20 29 50 72 90 36 32 90 83 120
112 30 28 57 52 59 52 6 0 34 25 127 110 100 92 154 141 198 179 136 120 190
169 287 261 22 22 45 40 50 40 5 0 33 24 62 53 29 28 70 68 92 87 22 19 62 55
89 80 103 95 121 110 126 110 3 0 18 12 32 28 15 15 43 41 64 58 20 18 41 40
46 50 5 11 13 118 16 239 4 121 9 227 11 235 2 8 6 69 9 135 3 66 13 273 21
459 9 186 17 342 20 345 2 4 6 99 9 211 3 113 6 205 7 205 4 0 9 71 13 180 3
72 10 213 15 315 6 102 13 241 16 310 3 69 7 132 10 140 3 8 1 38 -4 67 -4 29
-4 56 1 61 4 4 11 71 14 148 3 76 9 207 14 289 5 83 12 202 15 265 2 63 10
222 16 353 6 130 8 248 5 262 -8 32 -29 32 -88 -3z"/>
</g>
</svg>
